<svg width="212" height="122" viewBox="0 0 212 122" fill="none" xmlns="http://www.w3.org/2000/svg">
<path d="M171 0C177.075 2.57703e-06 182 4.92487 182 11V90C182 96.0751 177.075 101 171 101H11C4.92487 101 0 96.0751 0 90V11C1.48184e-06 4.92487 4.92487 1.20798e-08 11 0H171Z" fill="#3F3D3D"/>
<path d="M201 21C207.075 21 212 25.9249 212 32V111C212 117.075 207.075 122 201 122H41C34.9249 122 30 117.075 30 111V32C30 25.9249 34.9249 21 41 21H201Z" fill="#D9D9D9"/>
<path d="M121 58V86M107 72H135" stroke="#F5B9B9" stroke-width="4" stroke-linecap="round" stroke-linejoin="round"/>
</svg>
