<svg width="293" height="238" viewBox="0 0 293 238" fill="none" xmlns="http://www.w3.org/2000/svg">
<rect width="293" height="238" rx="14" fill="#CDCDCD"/>
<path d="M83.5227 134V104.909H87.0455V130.875H100.568V134H83.5227ZM105.568 134V112.182H108.92V134H105.568ZM107.273 108.545C106.619 108.545 106.056 108.323 105.582 107.878C105.118 107.433 104.886 106.898 104.886 106.273C104.886 105.648 105.118 105.113 105.582 104.668C106.056 104.223 106.619 104 107.273 104C107.926 104 108.485 104.223 108.949 104.668C109.422 105.113 109.659 105.648 109.659 106.273C109.659 106.898 109.422 107.433 108.949 107.878C108.485 108.323 107.926 108.545 107.273 108.545ZM115.515 134V104.909H118.867V115.648H119.151C119.397 115.269 119.738 114.786 120.174 114.199C120.619 113.602 121.254 113.072 122.077 112.608C122.911 112.134 124.038 111.898 125.458 111.898C127.295 111.898 128.915 112.357 130.316 113.276C131.718 114.194 132.811 115.496 133.597 117.182C134.383 118.867 134.776 120.856 134.776 123.148C134.776 125.458 134.383 127.461 133.597 129.156C132.811 130.842 131.722 132.149 130.33 133.077C128.938 133.995 127.333 134.455 125.515 134.455C124.113 134.455 122.991 134.223 122.148 133.759C121.306 133.285 120.657 132.75 120.202 132.153C119.748 131.547 119.397 131.045 119.151 130.648H118.754V134H115.515ZM118.81 123.091C118.81 124.739 119.052 126.192 119.535 127.452C120.018 128.702 120.723 129.682 121.651 130.392C122.579 131.093 123.716 131.443 125.06 131.443C126.462 131.443 127.631 131.074 128.569 130.335C129.516 129.587 130.226 128.583 130.7 127.324C131.183 126.055 131.424 124.644 131.424 123.091C131.424 121.557 131.187 120.174 130.714 118.943C130.25 117.703 129.544 116.723 128.597 116.003C127.66 115.274 126.481 114.909 125.06 114.909C123.697 114.909 122.551 115.255 121.623 115.946C120.695 116.628 119.994 117.584 119.521 118.815C119.047 120.037 118.81 121.462 118.81 123.091ZM139.904 134V112.182H143.143V115.477H143.37C143.768 114.398 144.487 113.522 145.529 112.849C146.571 112.177 147.745 111.841 149.052 111.841C149.298 111.841 149.606 111.846 149.975 111.855C150.344 111.865 150.624 111.879 150.813 111.898V115.307C150.7 115.278 150.439 115.236 150.032 115.179C149.634 115.113 149.213 115.08 148.768 115.08C147.707 115.08 146.76 115.302 145.927 115.747C145.103 116.183 144.45 116.789 143.967 117.565C143.493 118.332 143.256 119.208 143.256 120.193V134H139.904ZM161.207 134.511C159.825 134.511 158.57 134.251 157.443 133.73C156.316 133.2 155.421 132.438 154.759 131.443C154.096 130.439 153.764 129.227 153.764 127.807C153.764 126.557 154.01 125.544 154.503 124.767C154.995 123.981 155.653 123.366 156.477 122.92C157.301 122.475 158.21 122.144 159.205 121.926C160.208 121.699 161.217 121.519 162.23 121.386C163.556 121.216 164.631 121.088 165.455 121.003C166.288 120.908 166.894 120.752 167.273 120.534C167.661 120.316 167.855 119.937 167.855 119.398V119.284C167.855 117.883 167.472 116.794 166.705 116.017C165.947 115.241 164.796 114.852 163.253 114.852C161.652 114.852 160.398 115.203 159.489 115.903C158.58 116.604 157.94 117.352 157.571 118.148L154.389 117.011C154.957 115.686 155.715 114.653 156.662 113.915C157.618 113.167 158.66 112.646 159.787 112.352C160.923 112.049 162.041 111.898 163.139 111.898C163.84 111.898 164.645 111.983 165.554 112.153C166.473 112.314 167.358 112.651 168.21 113.162C169.072 113.673 169.787 114.445 170.355 115.477C170.923 116.509 171.207 117.892 171.207 119.625V134H167.855V131.045H167.685C167.457 131.519 167.079 132.026 166.548 132.565C166.018 133.105 165.313 133.564 164.432 133.943C163.551 134.322 162.476 134.511 161.207 134.511ZM161.719 131.5C163.045 131.5 164.162 131.24 165.071 130.719C165.99 130.198 166.681 129.526 167.145 128.702C167.618 127.878 167.855 127.011 167.855 126.102V123.034C167.713 123.205 167.401 123.361 166.918 123.503C166.444 123.635 165.895 123.754 165.27 123.858C164.654 123.953 164.053 124.038 163.466 124.114C162.888 124.18 162.42 124.237 162.06 124.284C161.188 124.398 160.374 124.582 159.616 124.838C158.868 125.084 158.262 125.458 157.798 125.96C157.344 126.453 157.116 127.125 157.116 127.977C157.116 129.142 157.547 130.023 158.409 130.619C159.28 131.206 160.384 131.5 161.719 131.5ZM177.326 134V112.182H180.565V115.477H180.792C181.19 114.398 181.909 113.522 182.951 112.849C183.993 112.177 185.167 111.841 186.474 111.841C186.72 111.841 187.028 111.846 187.397 111.855C187.766 111.865 188.046 111.879 188.235 111.898V115.307C188.121 115.278 187.861 115.236 187.454 115.179C187.056 115.113 186.635 115.08 186.19 115.08C185.129 115.08 184.182 115.302 183.349 115.747C182.525 116.183 181.871 116.789 181.388 117.565C180.915 118.332 180.678 119.208 180.678 120.193V134H177.326ZM195.032 142.182C194.464 142.182 193.957 142.134 193.512 142.04C193.067 141.955 192.759 141.869 192.589 141.784L193.441 138.83C194.255 139.038 194.975 139.114 195.6 139.057C196.225 139 196.779 138.721 197.262 138.219C197.754 137.726 198.204 136.926 198.612 135.818L199.237 134.114L191.168 112.182H194.805L200.827 129.568H201.055L207.077 112.182H210.714L201.452 137.182C201.036 138.309 200.52 139.241 199.904 139.98C199.289 140.728 198.574 141.282 197.759 141.642C196.954 142.002 196.045 142.182 195.032 142.182Z" fill="black"/>
</svg>
