<svg width="293" height="238" viewBox="0 0 293 238" fill="none" xmlns="http://www.w3.org/2000/svg">
<rect width="293" height="238" rx="14" fill="#CDCDCD"/>
<path d="M92.5909 104.909V134H89.1818L73.3295 111.159H73.0455V134H69.5227V104.909H72.9318L88.8409 127.807H89.125V104.909H92.5909ZM108.333 134.455C106.231 134.455 104.417 133.991 102.893 133.062C101.378 132.125 100.208 130.818 99.3842 129.142C98.5698 127.456 98.1626 125.496 98.1626 123.261C98.1626 121.027 98.5698 119.057 99.3842 117.352C100.208 115.638 101.354 114.303 102.822 113.347C104.299 112.381 106.022 111.898 107.992 111.898C109.129 111.898 110.251 112.087 111.359 112.466C112.467 112.845 113.475 113.46 114.384 114.312C115.293 115.155 116.018 116.273 116.558 117.665C117.097 119.057 117.367 120.771 117.367 122.807V124.227H100.549V121.33H113.958C113.958 120.098 113.712 119 113.219 118.034C112.737 117.068 112.045 116.306 111.146 115.747C110.255 115.188 109.204 114.909 107.992 114.909C106.657 114.909 105.502 115.241 104.526 115.903C103.56 116.557 102.817 117.409 102.296 118.46C101.775 119.511 101.515 120.638 101.515 121.841V123.773C101.515 125.42 101.799 126.817 102.367 127.963C102.945 129.099 103.745 129.966 104.768 130.562C105.79 131.15 106.979 131.443 108.333 131.443C109.214 131.443 110.009 131.32 110.719 131.074C111.439 130.818 112.059 130.439 112.58 129.938C113.101 129.426 113.504 128.792 113.788 128.034L117.026 128.943C116.685 130.042 116.112 131.008 115.308 131.841C114.503 132.665 113.508 133.309 112.325 133.773C111.141 134.227 109.81 134.455 108.333 134.455ZM127.41 134L120.762 112.182H124.285L129.001 128.886H129.228L133.887 112.182H137.467L142.069 128.83H142.296L147.012 112.182H150.535L143.887 134H140.592L135.819 117.239H135.478L130.705 134H127.41ZM182.58 112.182C182.41 110.742 181.719 109.625 180.506 108.83C179.294 108.034 177.808 107.636 176.046 107.636C174.758 107.636 173.631 107.845 172.665 108.261C171.709 108.678 170.961 109.251 170.421 109.98C169.891 110.709 169.626 111.538 169.626 112.466C169.626 113.242 169.81 113.91 170.18 114.469C170.558 115.018 171.041 115.477 171.629 115.847C172.216 116.206 172.831 116.505 173.475 116.741C174.119 116.969 174.711 117.153 175.251 117.295L178.205 118.091C178.963 118.29 179.806 118.564 180.734 118.915C181.671 119.265 182.566 119.743 183.418 120.349C184.28 120.946 184.99 121.713 185.549 122.651C186.108 123.588 186.387 124.739 186.387 126.102C186.387 127.674 185.975 129.095 185.151 130.364C184.337 131.633 183.144 132.641 181.572 133.389C180.009 134.137 178.111 134.511 175.876 134.511C173.792 134.511 171.988 134.175 170.464 133.503C168.949 132.83 167.755 131.893 166.884 130.69C166.022 129.488 165.535 128.091 165.421 126.5H169.058C169.152 127.598 169.522 128.508 170.165 129.227C170.819 129.937 171.643 130.468 172.637 130.818C173.641 131.159 174.72 131.33 175.876 131.33C177.22 131.33 178.428 131.112 179.498 130.676C180.568 130.231 181.415 129.616 182.04 128.83C182.665 128.034 182.978 127.106 182.978 126.045C182.978 125.08 182.708 124.294 182.168 123.688C181.629 123.081 180.918 122.589 180.038 122.21C179.157 121.831 178.205 121.5 177.183 121.216L173.603 120.193C171.33 119.54 169.531 118.607 168.205 117.395C166.879 116.183 166.217 114.597 166.217 112.636C166.217 111.008 166.657 109.587 167.538 108.375C168.428 107.153 169.621 106.206 171.117 105.534C172.623 104.852 174.304 104.511 176.16 104.511C178.035 104.511 179.701 104.848 181.16 105.52C182.618 106.183 183.773 107.092 184.626 108.247C185.487 109.402 185.942 110.714 185.989 112.182H182.58ZM200.872 134.455C198.77 134.455 196.956 133.991 195.432 133.062C193.917 132.125 192.747 130.818 191.923 129.142C191.109 127.456 190.702 125.496 190.702 123.261C190.702 121.027 191.109 119.057 191.923 117.352C192.747 115.638 193.893 114.303 195.361 113.347C196.838 112.381 198.562 111.898 200.531 111.898C201.668 111.898 202.79 112.087 203.898 112.466C205.006 112.845 206.014 113.46 206.923 114.312C207.832 115.155 208.557 116.273 209.097 117.665C209.636 119.057 209.906 120.771 209.906 122.807V124.227H193.088V121.33H206.497C206.497 120.098 206.251 119 205.759 118.034C205.276 117.068 204.584 116.306 203.685 115.747C202.795 115.188 201.743 114.909 200.531 114.909C199.196 114.909 198.041 115.241 197.065 115.903C196.099 116.557 195.356 117.409 194.835 118.46C194.314 119.511 194.054 120.638 194.054 121.841V123.773C194.054 125.42 194.338 126.817 194.906 127.963C195.484 129.099 196.284 129.966 197.307 130.562C198.33 131.15 199.518 131.443 200.872 131.443C201.753 131.443 202.548 131.32 203.259 131.074C203.978 130.818 204.598 130.439 205.119 129.938C205.64 129.426 206.043 128.792 206.327 128.034L209.565 128.943C209.224 130.042 208.652 131.008 207.847 131.841C207.042 132.665 206.047 133.309 204.864 133.773C203.68 134.227 202.349 134.455 200.872 134.455ZM224.494 112.182V115.023H213.188V112.182H224.494ZM216.483 106.955H219.835V127.75C219.835 128.697 219.973 129.407 220.247 129.881C220.531 130.345 220.891 130.657 221.327 130.818C221.772 130.97 222.241 131.045 222.733 131.045C223.102 131.045 223.405 131.027 223.642 130.989C223.879 130.941 224.068 130.903 224.21 130.875L224.892 133.886C224.665 133.972 224.348 134.057 223.94 134.142C223.533 134.237 223.017 134.284 222.392 134.284C221.445 134.284 220.517 134.08 219.608 133.673C218.708 133.266 217.96 132.646 217.364 131.812C216.777 130.979 216.483 129.928 216.483 128.659V106.955Z" fill="black"/>
</svg>
