<svg width="293" height="238" viewBox="0 0 293 238" fill="none" xmlns="http://www.w3.org/2000/svg">
<rect width="293" height="238" rx="14" fill="#CDCDCD"/>
<path d="M83.5227 134V104.909H87.0455V130.875H100.568V134H83.5227ZM105.568 134V112.182H108.92V134H105.568ZM107.273 108.545C106.619 108.545 106.056 108.323 105.582 107.878C105.118 107.433 104.886 106.898 104.886 106.273C104.886 105.648 105.118 105.113 105.582 104.668C106.056 104.223 106.619 104 107.273 104C107.926 104 108.485 104.223 108.949 104.668C109.422 105.113 109.659 105.648 109.659 106.273C109.659 106.898 109.422 107.433 108.949 107.878C108.485 108.323 107.926 108.545 107.273 108.545ZM115.515 134V104.909H118.867V115.648H119.151C119.397 115.269 119.738 114.786 120.174 114.199C120.619 113.602 121.254 113.072 122.077 112.608C122.911 112.134 124.038 111.898 125.458 111.898C127.295 111.898 128.915 112.357 130.316 113.276C131.718 114.194 132.811 115.496 133.597 117.182C134.383 118.867 134.776 120.856 134.776 123.148C134.776 125.458 134.383 127.461 133.597 129.156C132.811 130.842 131.722 132.149 130.33 133.077C128.938 133.995 127.333 134.455 125.515 134.455C124.113 134.455 122.991 134.223 122.148 133.759C121.306 133.285 120.657 132.75 120.202 132.153C119.748 131.547 119.397 131.045 119.151 130.648H118.754V134H115.515ZM118.81 123.091C118.81 124.739 119.052 126.192 119.535 127.452C120.018 128.702 120.723 129.682 121.651 130.392C122.579 131.093 123.716 131.443 125.06 131.443C126.462 131.443 127.631 131.074 128.569 130.335C129.516 129.587 130.226 128.583 130.7 127.324C131.183 126.055 131.424 124.644 131.424 123.091C131.424 121.557 131.187 120.174 130.714 118.943C130.25 117.703 129.544 116.723 128.597 116.003C127.66 115.274 126.481 114.909 125.06 114.909C123.697 114.909 122.551 115.255 121.623 115.946C120.695 116.628 119.994 117.584 119.521 118.815C119.047 120.037 118.81 121.462 118.81 123.091ZM139.904 134V112.182H143.143V115.477H143.37C143.768 114.398 144.487 113.522 145.529 112.849C146.571 112.177 147.745 111.841 149.052 111.841C149.298 111.841 149.606 111.846 149.975 111.855C150.344 111.865 150.624 111.879 150.813 111.898V115.307C150.7 115.278 150.439 115.236 150.032 115.179C149.634 115.113 149.213 115.08 148.768 115.08C147.707 115.08 146.76 115.302 145.927 115.747C145.103 116.183 144.45 116.789 143.967 117.565C143.493 118.332 143.256 119.208 143.256 120.193V134H139.904ZM161.207 134.511C159.825 134.511 158.57 134.251 157.443 133.73C156.316 133.2 155.421 132.438 154.759 131.443C154.096 130.439 153.764 129.227 153.764 127.807C153.764 126.557 154.01 125.544 154.503 124.767C154.995 123.981 155.653 123.366 156.477 122.92C157.301 122.475 158.21 122.144 159.205 121.926C160.208 121.699 161.217 121.519 162.23 121.386C163.556 121.216 164.631 121.088 165.455 121.003C166.288 120.908 166.894 120.752 167.273 120.534C167.661 120.316 167.855 119.937 167.855 119.398V119.284C167.855 117.883 167.472 116.794 166.705 116.017C165.947 115.241 164.796 114.852 163.253 114.852C161.652 114.852 160.398 115.203 159.489 115.903C158.58 116.604 157.94 117.352 157.571 118.148L154.389 117.011C154.957 115.686 155.715 114.653 156.662 113.915C157.618 113.167 158.66 112.646 159.787 112.352C160.923 112.049 162.041 111.898 163.139 111.898C163.84 111.898 164.645 111.983 165.554 112.153C166.473 112.314 167.358 112.651 168.21 113.162C169.072 113.673 169.787 114.445 170.355 115.477C170.923 116.509 171.207 117.892 171.207 119.625V134H167.855V131.045H167.685C167.457 131.519 167.079 132.026 166.548 132.565C166.018 133.105 165.313 133.564 164.432 133.943C163.551 134.322 162.476 134.511 161.207 134.511ZM161.719 131.5C163.045 131.5 164.162 131.24 165.071 130.719C165.99 130.198 166.681 129.526 167.145 128.702C167.618 127.878 167.855 127.011 167.855 126.102V123.034C167.713 123.205 167.401 123.361 166.918 123.503C166.444 123.635 165.895 123.754 165.27 123.858C164.654 123.953 164.053 124.038 163.466 124.114C162.888 124.18 162.42 124.237 162.06 124.284C161.188 124.398 160.374 124.582 159.616 124.838C158.868 125.084 158.262 125.458 157.798 125.96C157.344 126.453 157.116 127.125 157.116 127.977C157.116 129.142 157.547 130.023 158.409 130.619C159.28 131.206 160.384 131.5 161.719 131.5ZM177.326 134V112.182H180.565V115.477H180.792C181.19 114.398 181.909 113.522 182.951 112.849C183.993 112.177 185.167 111.841 186.474 111.841C186.72 111.841 187.028 111.846 187.397 111.855C187.766 111.865 188.046 111.879 188.235 111.898V115.307C188.121 115.278 187.861 115.236 187.454 115.179C187.056 115.113 186.635 115.08 186.19 115.08C185.129 115.08 184.182 115.302 183.349 115.747C182.525 116.183 181.871 116.789 181.388 117.565C180.915 118.332 180.678 119.208 180.678 120.193V134H177.326ZM195.032 142.182C194.464 142.182 193.957 142.134 193.512 142.04C193.067 141.955 192.759 141.869 192.589 141.784L193.441 138.83C194.255 139.038 194.975 139.114 195.6 139.057C196.225 139 196.779 138.721 197.262 138.219C197.754 137.726 198.204 136.926 198.612 135.818L199.237 134.114L191.168 112.182H194.805L200.827 129.568H201.055L207.077 112.182H210.714L201.452 137.182C201.036 138.309 200.52 139.241 199.904 139.98C199.289 140.728 198.574 141.282 197.759 141.642C196.954 142.002 196.045 142.182 195.032 142.182Z" fill="black"/>
<rect width="293" height="238" rx="14" fill="#CDCDCD"/>
<path d="M83.5227 134V104.909H87.0455V130.875H100.568V134H83.5227ZM105.568 134V112.182H108.92V134H105.568ZM107.273 108.545C106.619 108.545 106.056 108.323 105.582 107.878C105.118 107.433 104.886 106.898 104.886 106.273C104.886 105.648 105.118 105.113 105.582 104.668C106.056 104.223 106.619 104 107.273 104C107.926 104 108.485 104.223 108.949 104.668C109.422 105.113 109.659 105.648 109.659 106.273C109.659 106.898 109.422 107.433 108.949 107.878C108.485 108.323 107.926 108.545 107.273 108.545ZM115.515 134V104.909H118.867V115.648H119.151C119.397 115.269 119.738 114.786 120.174 114.199C120.619 113.602 121.254 113.072 122.077 112.608C122.911 112.134 124.038 111.898 125.458 111.898C127.295 111.898 128.915 112.357 130.316 113.276C131.718 114.194 132.811 115.496 133.597 117.182C134.383 118.867 134.776 120.856 134.776 123.148C134.776 125.458 134.383 127.461 133.597 129.156C132.811 130.842 131.722 132.149 130.33 133.077C128.938 133.995 127.333 134.455 125.515 134.455C124.113 134.455 122.991 134.223 122.148 133.759C121.306 133.285 120.657 132.75 120.202 132.153C119.748 131.547 119.397 131.045 119.151 130.648H118.754V134H115.515ZM118.81 123.091C118.81 124.739 119.052 126.192 119.535 127.452C120.018 128.702 120.723 129.682 121.651 130.392C122.579 131.093 123.716 131.443 125.06 131.443C126.462 131.443 127.631 131.074 128.569 130.335C129.516 129.587 130.226 128.583 130.7 127.324C131.183 126.055 131.424 124.644 131.424 123.091C131.424 121.557 131.187 120.174 130.714 118.943C130.25 117.703 129.544 116.723 128.597 116.003C127.66 115.274 126.481 114.909 125.06 114.909C123.697 114.909 122.551 115.255 121.623 115.946C120.695 116.628 119.994 117.584 119.521 118.815C119.047 120.037 118.81 121.462 118.81 123.091ZM139.904 134V112.182H143.143V115.477H143.37C143.768 114.398 144.487 113.522 145.529 112.849C146.571 112.177 147.745 111.841 149.052 111.841C149.298 111.841 149.606 111.846 149.975 111.855C150.344 111.865 150.624 111.879 150.813 111.898V115.307C150.7 115.278 150.439 115.236 150.032 115.179C149.634 115.113 149.213 115.08 148.768 115.08C147.707 115.08 146.76 115.302 145.927 115.747C145.103 116.183 144.45 116.789 143.967 117.565C143.493 118.332 143.256 119.208 143.256 120.193V134H139.904ZM161.207 134.511C159.825 134.511 158.57 134.251 157.443 133.73C156.316 133.2 155.421 132.438 154.759 131.443C154.096 130.439 153.764 129.227 153.764 127.807C153.764 126.557 154.01 125.544 154.503 124.767C154.995 123.981 155.653 123.366 156.477 122.92C157.301 122.475 158.21 122.144 159.205 121.926C160.208 121.699 161.217 121.519 162.23 121.386C163.556 121.216 164.631 121.088 165.455 121.003C166.288 120.908 166.894 120.752 167.273 120.534C167.661 120.316 167.855 119.937 167.855 119.398V119.284C167.855 117.883 167.472 116.794 166.705 116.017C165.947 115.241 164.796 114.852 163.253 114.852C161.652 114.852 160.398 115.203 159.489 115.903C158.58 116.604 157.94 117.352 157.571 118.148L154.389 117.011C154.957 115.686 155.715 114.653 156.662 113.915C157.618 113.167 158.66 112.646 159.787 112.352C160.923 112.049 162.041 111.898 163.139 111.898C163.84 111.898 164.645 111.983 165.554 112.153C166.473 112.314 167.358 112.651 168.21 113.162C169.072 113.673 169.787 114.445 170.355 115.477C170.923 116.509 171.207 117.892 171.207 119.625V134H167.855V131.045H167.685C167.457 131.519 167.079 132.026 166.548 132.565C166.018 133.105 165.313 133.564 164.432 133.943C163.551 134.322 162.476 134.511 161.207 134.511ZM161.719 131.5C163.045 131.5 164.162 131.24 165.071 130.719C165.99 130.198 166.681 129.526 167.145 128.702C167.618 127.878 167.855 127.011 167.855 126.102V123.034C167.713 123.205 167.401 123.361 166.918 123.503C166.444 123.635 165.895 123.754 165.27 123.858C164.654 123.953 164.053 124.038 163.466 124.114C162.888 124.18 162.42 124.237 162.06 124.284C161.188 124.398 160.374 124.582 159.616 124.838C158.868 125.084 158.262 125.458 157.798 125.96C157.344 126.453 157.116 127.125 157.116 127.977C157.116 129.142 157.547 130.023 158.409 130.619C159.28 131.206 160.384 131.5 161.719 131.5ZM177.326 134V112.182H180.565V115.477H180.792C181.19 114.398 181.909 113.522 182.951 112.849C183.993 112.177 185.167 111.841 186.474 111.841C186.72 111.841 187.028 111.846 187.397 111.855C187.766 111.865 188.046 111.879 188.235 111.898V115.307C188.121 115.278 187.861 115.236 187.454 115.179C187.056 115.113 186.635 115.08 186.19 115.08C185.129 115.08 184.182 115.302 183.349 115.747C182.525 116.183 181.871 116.789 181.388 117.565C180.915 118.332 180.678 119.208 180.678 120.193V134H177.326ZM195.032 142.182C194.464 142.182 193.957 142.134 193.512 142.04C193.067 141.955 192.759 141.869 192.589 141.784L193.441 138.83C194.255 139.038 194.975 139.114 195.6 139.057C196.225 139 196.779 138.721 197.262 138.219C197.754 137.726 198.204 136.926 198.612 135.818L199.237 134.114L191.168 112.182H194.805L200.827 129.568H201.055L207.077 112.182H210.714L201.452 137.182C201.036 138.309 200.52 139.241 199.904 139.98C199.289 140.728 198.574 141.282 197.759 141.642C196.954 142.002 196.045 142.182 195.032 142.182Z" fill="black"/>
<rect width="293" height="238" rx="14" fill="#CDCDCD"/>
<path d="M72.5227 134V104.909H82.3523C84.6345 104.909 86.5 105.321 87.9489 106.145C89.4072 106.959 90.4867 108.062 91.1875 109.455C91.8883 110.847 92.2386 112.4 92.2386 114.114C92.2386 115.828 91.8883 117.385 91.1875 118.787C90.4962 120.188 89.4261 121.306 87.9773 122.139C86.5284 122.963 84.6723 123.375 82.4091 123.375H75.3636V120.25H82.2955C83.858 120.25 85.1127 119.98 86.0597 119.44C87.0066 118.901 87.6932 118.171 88.1193 117.253C88.5549 116.325 88.7727 115.278 88.7727 114.114C88.7727 112.949 88.5549 111.907 88.1193 110.989C87.6932 110.07 87.0019 109.35 86.0455 108.83C85.089 108.299 83.8201 108.034 82.2386 108.034H76.0455V134H72.5227ZM97.4588 134V112.182H100.697V115.477H100.925C101.322 114.398 102.042 113.522 103.084 112.849C104.125 112.177 105.3 111.841 106.607 111.841C106.853 111.841 107.161 111.846 107.53 111.855C107.899 111.865 108.179 111.879 108.368 111.898V115.307C108.254 115.278 107.994 115.236 107.587 115.179C107.189 115.113 106.768 115.08 106.322 115.08C105.262 115.08 104.315 115.302 103.482 115.747C102.658 116.183 102.004 116.789 101.521 117.565C101.048 118.332 100.811 119.208 100.811 120.193V134H97.4588ZM118.762 134.511C117.379 134.511 116.125 134.251 114.998 133.73C113.871 133.2 112.976 132.438 112.313 131.443C111.65 130.439 111.319 129.227 111.319 127.807C111.319 126.557 111.565 125.544 112.058 124.767C112.55 123.981 113.208 123.366 114.032 122.92C114.856 122.475 115.765 122.144 116.759 121.926C117.763 121.699 118.772 121.519 119.785 121.386C121.111 121.216 122.185 121.088 123.009 121.003C123.843 120.908 124.449 120.752 124.827 120.534C125.216 120.316 125.41 119.937 125.41 119.398V119.284C125.41 117.883 125.026 116.794 124.259 116.017C123.502 115.241 122.351 114.852 120.808 114.852C119.207 114.852 117.952 115.203 117.043 115.903C116.134 116.604 115.495 117.352 115.126 118.148L111.944 117.011C112.512 115.686 113.27 114.653 114.217 113.915C115.173 113.167 116.215 112.646 117.342 112.352C118.478 112.049 119.595 111.898 120.694 111.898C121.395 111.898 122.2 111.983 123.109 112.153C124.027 112.314 124.913 112.651 125.765 113.162C126.627 113.673 127.342 114.445 127.91 115.477C128.478 116.509 128.762 117.892 128.762 119.625V134H125.41V131.045H125.239C125.012 131.519 124.633 132.026 124.103 132.565C123.573 133.105 122.867 133.564 121.987 133.943C121.106 134.322 120.031 134.511 118.762 134.511ZM119.273 131.5C120.599 131.5 121.717 131.24 122.626 130.719C123.544 130.198 124.236 129.526 124.7 128.702C125.173 127.878 125.41 127.011 125.41 126.102V123.034C125.268 123.205 124.955 123.361 124.472 123.503C123.999 123.635 123.45 123.754 122.825 123.858C122.209 123.953 121.608 124.038 121.021 124.114C120.443 124.18 119.974 124.237 119.614 124.284C118.743 124.398 117.929 124.582 117.171 124.838C116.423 125.084 115.817 125.458 115.353 125.96C114.898 126.453 114.671 127.125 114.671 127.977C114.671 129.142 115.102 130.023 115.964 130.619C116.835 131.206 117.938 131.5 119.273 131.5ZM143.744 134.455C141.699 134.455 139.938 133.972 138.46 133.006C136.983 132.04 135.847 130.709 135.051 129.014C134.256 127.319 133.858 125.383 133.858 123.205C133.858 120.989 134.265 119.033 135.08 117.338C135.903 115.634 137.049 114.303 138.517 113.347C139.994 112.381 141.718 111.898 143.688 111.898C145.222 111.898 146.604 112.182 147.835 112.75C149.066 113.318 150.075 114.114 150.861 115.136C151.647 116.159 152.134 117.352 152.324 118.716H148.972C148.716 117.722 148.148 116.841 147.267 116.074C146.396 115.297 145.222 114.909 143.744 114.909C142.438 114.909 141.292 115.25 140.307 115.932C139.331 116.604 138.569 117.556 138.02 118.787C137.48 120.009 137.21 121.443 137.21 123.091C137.21 124.777 137.475 126.244 138.006 127.494C138.545 128.744 139.303 129.715 140.278 130.406C141.263 131.098 142.419 131.443 143.744 131.443C144.616 131.443 145.406 131.292 146.116 130.989C146.827 130.686 147.428 130.25 147.92 129.682C148.413 129.114 148.763 128.432 148.972 127.636H152.324C152.134 128.924 151.666 130.084 150.918 131.116C150.179 132.139 149.199 132.954 147.977 133.56C146.765 134.156 145.354 134.455 143.744 134.455ZM166.713 112.182V115.023H155.406V112.182H166.713ZM158.702 106.955H162.054V127.75C162.054 128.697 162.191 129.407 162.466 129.881C162.75 130.345 163.11 130.657 163.545 130.818C163.991 130.97 164.459 131.045 164.952 131.045C165.321 131.045 165.624 131.027 165.861 130.989C166.098 130.941 166.287 130.903 166.429 130.875L167.111 133.886C166.884 133.972 166.566 134.057 166.159 134.142C165.752 134.237 165.236 134.284 164.611 134.284C163.664 134.284 162.736 134.08 161.827 133.673C160.927 133.266 160.179 132.646 159.582 131.812C158.995 130.979 158.702 129.928 158.702 128.659V106.955ZM171.756 134V112.182H175.108V134H171.756ZM173.46 108.545C172.807 108.545 172.243 108.323 171.77 107.878C171.306 107.433 171.074 106.898 171.074 106.273C171.074 105.648 171.306 105.113 171.77 104.668C172.243 104.223 172.807 104 173.46 104C174.114 104 174.672 104.223 175.136 104.668C175.61 105.113 175.847 105.648 175.847 106.273C175.847 106.898 175.61 107.433 175.136 107.878C174.672 108.323 174.114 108.545 173.46 108.545ZM190.112 134.455C188.066 134.455 186.305 133.972 184.827 133.006C183.35 132.04 182.214 130.709 181.418 129.014C180.623 127.319 180.225 125.383 180.225 123.205C180.225 120.989 180.632 119.033 181.447 117.338C182.271 115.634 183.416 114.303 184.884 113.347C186.362 112.381 188.085 111.898 190.055 111.898C191.589 111.898 192.971 112.182 194.202 112.75C195.433 113.318 196.442 114.114 197.228 115.136C198.014 116.159 198.502 117.352 198.691 118.716H195.339C195.083 117.722 194.515 116.841 193.634 116.074C192.763 115.297 191.589 114.909 190.112 114.909C188.805 114.909 187.659 115.25 186.674 115.932C185.699 116.604 184.936 117.556 184.387 118.787C183.847 120.009 183.577 121.443 183.577 123.091C183.577 124.777 183.843 126.244 184.373 127.494C184.913 128.744 185.67 129.715 186.646 130.406C187.63 131.098 188.786 131.443 190.112 131.443C190.983 131.443 191.773 131.292 192.484 130.989C193.194 130.686 193.795 130.25 194.288 129.682C194.78 129.114 195.13 128.432 195.339 127.636H198.691C198.502 128.924 198.033 130.084 197.285 131.116C196.546 132.139 195.566 132.954 194.344 133.56C193.132 134.156 191.721 134.455 190.112 134.455ZM212.739 134.455C210.637 134.455 208.824 133.991 207.299 133.062C205.784 132.125 204.614 130.818 203.79 129.142C202.976 127.456 202.569 125.496 202.569 123.261C202.569 121.027 202.976 119.057 203.79 117.352C204.614 115.638 205.76 114.303 207.228 113.347C208.705 112.381 210.429 111.898 212.398 111.898C213.535 111.898 214.657 112.087 215.765 112.466C216.873 112.845 217.881 113.46 218.79 114.312C219.7 115.155 220.424 116.273 220.964 117.665C221.504 119.057 221.773 120.771 221.773 122.807V124.227H204.955V121.33H218.364C218.364 120.098 218.118 119 217.626 118.034C217.143 117.068 216.451 116.306 215.552 115.747C214.662 115.188 213.611 114.909 212.398 114.909C211.063 114.909 209.908 115.241 208.933 115.903C207.967 116.557 207.223 117.409 206.702 118.46C206.182 119.511 205.921 120.638 205.921 121.841V123.773C205.921 125.42 206.205 126.817 206.773 127.963C207.351 129.099 208.151 129.966 209.174 130.562C210.197 131.15 211.385 131.443 212.739 131.443C213.62 131.443 214.415 131.32 215.126 131.074C215.845 130.818 216.466 130.439 216.987 129.938C217.507 129.426 217.91 128.792 218.194 128.034L221.433 128.943C221.092 130.042 220.519 131.008 219.714 131.841C218.909 132.665 217.915 133.309 216.731 133.773C215.547 134.227 214.217 134.455 212.739 134.455Z" fill="black"/>
</svg>
